<?xml version="1.0" standalone="no"?><!DOCTYPE svg PUBLIC "-//W3C//DTD SVG 1.1//EN" "http://www.w3.org/Graphics/SVG/1.1/DTD/svg11.dtd"><svg class="icon" width="48px" height="42.89px" viewBox="0 0 1146 1024" version="1.1" xmlns="http://www.w3.org/2000/svg"><path fill="#1296db" d="M180.6336 836.85376h746.41408V208.81408H180.6336V836.8128zM1008.96768 126.89408V918.7328H98.7136V126.89408h910.25408zM41.7792 286.18752a20.48 20.48 0 0 1-40.96 0V49.52064a20.48 20.48 0 0 1 20.48-20.48H258.048a20.48 20.48 0 0 1 0 40.96H41.82016v216.18688z m1024 0V70.00064h-216.14592a20.48 20.48 0 1 1 0-40.96h236.62592a20.48 20.48 0 0 1 20.48 20.48v236.66688a20.48 20.48 0 1 1-40.96 0z m-1024 473.2928v216.18688H258.048a20.48 20.48 0 1 1 0 40.96H21.34016a20.48 20.48 0 0 1-20.48-20.48v-236.66688a20.48 20.48 0 1 1 40.96 0z m1024 0a20.48 20.48 0 0 1 40.96 0v236.66688a20.48 20.48 0 0 1-20.48 20.48h-236.62592a20.48 20.48 0 1 1 0-40.96h216.14592v-216.18688z" /></svg>