<?xml version="1.0" standalone="no"?><!DOCTYPE svg PUBLIC "-//W3C//DTD SVG 1.1//EN" "http://www.w3.org/Graphics/SVG/1.1/DTD/svg11.dtd"><svg class="icon" width="48px" height="48.00px" viewBox="0 0 1024 1024" version="1.1" xmlns="http://www.w3.org/2000/svg"><path fill="#1296db" d="M847.644444 1024H150.755556c-48.355556-5.688889-88.177778-42.666667-93.866667-93.866667V93.866667C62.577778 45.511111 102.4 5.688889 150.755556 0h512l278.755555 278.755556v651.377777c-5.688889 51.2-45.511111 88.177778-93.866667 93.866667z m0-745.244444h-139.377777c-25.6-2.844444-42.666667-22.755556-45.511111-45.511112V93.866667H196.266667c-25.6-2.844444-45.511111 17.066667-45.511111 42.666666v748.088889c5.688889 22.755556 22.755556 42.666667 45.511111 45.511111h605.866666c25.6-2.844444 45.511111-22.755556 45.511111-45.511111V278.755556z m-128 591.644444l-102.4-105.244444-56.888888 56.888888c-19.911111 19.911111-48.355556 19.911111-68.266667 0-2.844444-2.844444-2.844444-5.688889-5.688889-5.688888l-147.911111-145.066667-59.733333 59.733333c-19.911111 19.911111-48.355556 19.911111-68.266667 0-19.911111-17.066667-19.911111-48.355556 0-68.266666l88.177778-88.177778c14.222222-19.911111 42.666667-22.755556 59.733333-8.533334 5.688889 2.844444 8.533333 8.533333 11.377778 14.222223l145.066666 145.066666 59.733334-59.733333c19.911111-19.911111 51.2-19.911111 71.111111 0l136.533333 136.533333c19.911111 19.911111 19.911111 48.355556 0 68.266667-14.222222 19.911111-45.511111 19.911111-62.577778 0z m-105.244444-264.533333c-76.8 0-139.377778-62.577778-139.377778-139.377778s62.577778-139.377778 139.377778-139.377778 139.377778 62.577778 139.377778 139.377778-62.577778 139.377778-139.377778 139.377778z m0-187.733334c-25.6 0-45.511111 19.911111-45.511111 45.511111 0 25.6 19.911111 45.511111 45.511111 45.511112 25.6 0 45.511111-19.911111 45.511111-45.511112 2.844444-22.755556-19.911111-45.511111-45.511111-45.511111z"  /></svg>